<?xml version="1.0" standalone="no"?>
<!DOCTYPE svg PUBLIC "-//W3C//DTD SVG 20010904//EN"
 "http://www.w3.org/TR/2001/REC-SVG-20010904/DTD/svg10.dtd">
<svg version="1.0" xmlns="http://www.w3.org/2000/svg"
 width="512.000000pt" height="512.000000pt" viewBox="0 0 512.000000 512.000000"
 preserveAspectRatio="xMidYMid meet">

<g transform="translate(0.000000,512.000000) scale(0.100000,-0.100000)"
fill="#FF0000" stroke="none">
<path d="M2015 4411 c-49 -22 -91 -63 -116 -113 -16 -30 -19 -59 -19 -158 l0
-120 -309 0 -309 0 -53 -28 c-39 -20 -62 -41 -84 -77 -30 -48 -30 -51 -33
-205 -2 -96 1 -173 8 -198 20 -75 91 -138 170 -151 l35 -6 5 -1220 5 -1220 24
-49 c31 -63 84 -116 147 -147 l49 -24 1025 0 1025 0 46 21 c60 28 119 87 150
150 l24 49 3 446 c3 416 2 447 -15 466 -30 34 -69 38 -98 9 l-25 -25 0 -423
c0 -420 0 -424 -22 -468 -17 -33 -35 -51 -68 -67 l-44 -23 -976 0 -976 0 -44
23 c-33 16 -51 34 -67 67 l-23 44 0 1193 0 1193 1110 0 1110 0 0 -408 0 -409
23 -21 c29 -27 57 -28 88 -3 l24 19 5 413 5 414 35 5 c75 13 142 70 166 142
12 38 15 81 12 207 -3 155 -3 158 -33 206 -22 36 -45 57 -84 77 l-53 28 -309
0 -309 0 0 115 c0 130 -11 169 -63 224 -69 72 -53 71 -617 71 -469 0 -508 -2
-545 -19z m1054 -147 l31 -26 0 -109 0 -109 -540 0 -540 0 0 108 c1 110 6 127
45 150 14 8 157 11 497 12 l476 0 31 -26z m796 -409 c24 -23 25 -29 25 -164 0
-77 -3 -147 -6 -156 -18 -46 19 -45 -1324 -45 -1343 0 -1306 -1 -1324 45 -3 9
-6 79 -6 156 0 135 1 141 25 164 l24 25 1281 0 1281 0 24 -25z"/>
<path d="M1913 2878 c-12 -6 -26 -22 -32 -37 -8 -18 -11 -248 -9 -762 3 -709
4 -738 22 -758 26 -28 79 -28 106 1 20 22 20 31 20 770 l0 749 -25 24 c-26 27
-47 30 -82 13z"/>
<path d="M2516 2869 l-26 -20 0 -755 c0 -741 0 -754 20 -774 26 -26 74 -26
100 0 20 20 20 33 20 774 l0 755 -26 20 c-15 12 -34 21 -44 21 -10 0 -29 -9
-44 -21z"/>
<path d="M3125 2865 l-25 -24 0 -749 c0 -739 0 -748 20 -770 27 -29 80 -29
106 -1 18 20 19 49 22 758 2 513 -1 744 -8 762 -11 26 -47 49 -76 49 -8 0 -26
-11 -39 -25z"/>
<path d="M3697 2270 c-24 -19 -27 -28 -27 -85 0 -45 5 -68 18 -83 27 -32 71
-33 102 -2 27 27 28 128 3 158 -27 32 -64 37 -96 12z"/>
</g>
</svg>
