<svg width="25" height="23" viewBox="0 0 25 23" fill="none" xmlns="http://www.w3.org/2000/svg">
<path d="M12.0245 1.08156C12.1741 0.620903 12.8259 0.620908 12.9755 1.08156L15.0554 7.48278C15.2562 8.10081 15.8322 8.51925 16.482 8.51925L23.2126 8.51925C23.697 8.51925 23.8984 9.13906 23.5065 9.42376L18.0613 13.3799C17.5356 13.7619 17.3156 14.439 17.5164 15.057L19.5963 21.4582C19.746 21.9189 19.2187 22.3019 18.8269 22.0172L13.3817 18.061C12.8559 17.6791 12.1441 17.6791 11.6183 18.0611L6.17312 22.0172C5.78126 22.3019 5.25402 21.9189 5.4037 21.4582L7.48358 15.057C7.68439 14.4389 7.46441 13.7619 6.93867 13.3799L1.49347 9.42376C1.10162 9.13906 1.303 8.51925 1.78736 8.51925L8.51801 8.51925C9.16784 8.51925 9.74378 8.10081 9.94459 7.48278L12.0245 1.08156Z" stroke="white"/>
</svg>
